<mxfile host="Electron" agent="Mozilla/5.0 (Windows NT 10.0; Win64; x64) AppleWebKit/537.36 (KHTML, like Gecko) draw.io/28.1.2 Chrome/138.0.7204.243 Electron/37.4.0 Safari/537.36" version="28.1.2">
  <diagram name="Page-1" id="LxThid09AFDaaToN8CYZ">
    <mxGraphModel dx="1042" dy="626" grid="1" gridSize="10" guides="1" tooltips="1" connect="1" arrows="1" fold="1" page="1" pageScale="1" pageWidth="850" pageHeight="1100" math="0" shadow="0">
      <root>
        <mxCell id="0" />
        <mxCell id="1" parent="0" />
        <mxCell id="7ZYM0FB4CEL7lgZt3tm9-33" style="edgeStyle=none;curved=1;rounded=0;orthogonalLoop=1;jettySize=auto;html=1;exitX=1;exitY=1;exitDx=0;exitDy=0;entryX=0;entryY=0.5;entryDx=0;entryDy=0;fontSize=12;startSize=8;endSize=8;" parent="1" source="7ZYM0FB4CEL7lgZt3tm9-37" target="7ZYM0FB4CEL7lgZt3tm9-38" edge="1">
          <mxGeometry relative="1" as="geometry" />
        </mxCell>
        <mxCell id="7ZYM0FB4CEL7lgZt3tm9-34" style="edgeStyle=none;curved=1;rounded=0;orthogonalLoop=1;jettySize=auto;html=1;exitX=1;exitY=0.5;exitDx=0;exitDy=0;entryX=0;entryY=0.5;entryDx=0;entryDy=0;fontSize=12;startSize=8;endSize=8;" parent="1" source="7ZYM0FB4CEL7lgZt3tm9-37" target="7ZYM0FB4CEL7lgZt3tm9-47" edge="1">
          <mxGeometry relative="1" as="geometry" />
        </mxCell>
        <mxCell id="7ZYM0FB4CEL7lgZt3tm9-35" style="edgeStyle=none;curved=1;rounded=0;orthogonalLoop=1;jettySize=auto;html=1;exitX=0;exitY=0.5;exitDx=0;exitDy=0;entryX=0.5;entryY=0;entryDx=0;entryDy=0;fontSize=12;startSize=8;endSize=8;" parent="1" source="7ZYM0FB4CEL7lgZt3tm9-37" target="7ZYM0FB4CEL7lgZt3tm9-46" edge="1">
          <mxGeometry relative="1" as="geometry" />
        </mxCell>
        <mxCell id="7ZYM0FB4CEL7lgZt3tm9-36" style="edgeStyle=none;curved=1;rounded=0;orthogonalLoop=1;jettySize=auto;html=1;exitX=0;exitY=0.5;exitDx=0;exitDy=0;entryX=0.5;entryY=1;entryDx=0;entryDy=0;fontSize=12;startSize=8;endSize=8;" parent="1" source="7ZYM0FB4CEL7lgZt3tm9-37" target="7ZYM0FB4CEL7lgZt3tm9-56" edge="1">
          <mxGeometry relative="1" as="geometry" />
        </mxCell>
        <mxCell id="7ZYM0FB4CEL7lgZt3tm9-37" value="Quản trị viên" style="rounded=0;whiteSpace=wrap;html=1;" parent="1" vertex="1">
          <mxGeometry x="808" y="440" width="120" height="40" as="geometry" />
        </mxCell>
        <mxCell id="7ZYM0FB4CEL7lgZt3tm9-38" value="đăng ký/ đăng nhập" style="ellipse;whiteSpace=wrap;html=1;" parent="1" vertex="1">
          <mxGeometry x="1156" y="727" width="140" height="50" as="geometry" />
        </mxCell>
        <mxCell id="7ZYM0FB4CEL7lgZt3tm9-39" value="xử lí báo cáo vi phạm" style="ellipse;whiteSpace=wrap;html=1;" parent="1" vertex="1">
          <mxGeometry x="448" y="383" width="140" height="50" as="geometry" />
        </mxCell>
        <mxCell id="7ZYM0FB4CEL7lgZt3tm9-40" value="" style="endArrow=classic;html=1;rounded=0;fontSize=12;startSize=8;endSize=8;curved=1;dashed=1;exitX=0.274;exitY=1.016;exitDx=0;exitDy=0;entryX=0.5;entryY=0;entryDx=0;entryDy=0;exitPerimeter=0;" parent="1" source="7ZYM0FB4CEL7lgZt3tm9-46" target="7ZYM0FB4CEL7lgZt3tm9-54" edge="1">
          <mxGeometry relative="1" as="geometry">
            <mxPoint x="1508" y="1210" as="sourcePoint" />
            <mxPoint x="1568" y="1140" as="targetPoint" />
          </mxGeometry>
        </mxCell>
        <mxCell id="7ZYM0FB4CEL7lgZt3tm9-41" value="Extend" style="edgeLabel;resizable=0;html=1;;align=center;verticalAlign=middle;" parent="7ZYM0FB4CEL7lgZt3tm9-40" connectable="0" vertex="1">
          <mxGeometry relative="1" as="geometry" />
        </mxCell>
        <mxCell id="7ZYM0FB4CEL7lgZt3tm9-42" value="thêm nhạc" style="ellipse;whiteSpace=wrap;html=1;" parent="1" vertex="1">
          <mxGeometry x="1308" y="600" width="140" height="50" as="geometry" />
        </mxCell>
        <mxCell id="7ZYM0FB4CEL7lgZt3tm9-43" value="cập nhật nhạc" style="ellipse;whiteSpace=wrap;html=1;" parent="1" vertex="1">
          <mxGeometry x="1371" y="659" width="140" height="50" as="geometry" />
        </mxCell>
        <mxCell id="7ZYM0FB4CEL7lgZt3tm9-44" value="xóa nhạc" style="ellipse;whiteSpace=wrap;html=1;" parent="1" vertex="1">
          <mxGeometry x="1308" y="510" width="140" height="50" as="geometry" />
        </mxCell>
        <mxCell id="7ZYM0FB4CEL7lgZt3tm9-46" value="quản lí người dùng" style="ellipse;whiteSpace=wrap;html=1;" parent="1" vertex="1">
          <mxGeometry x="592" y="538" width="140" height="50" as="geometry" />
        </mxCell>
        <mxCell id="7ZYM0FB4CEL7lgZt3tm9-47" value="quản lí thư viện nhạc" style="ellipse;whiteSpace=wrap;html=1;" parent="1" vertex="1">
          <mxGeometry x="1038" y="490" width="140" height="50" as="geometry" />
        </mxCell>
        <mxCell id="7ZYM0FB4CEL7lgZt3tm9-48" value="" style="endArrow=classic;html=1;rounded=0;fontSize=12;startSize=8;endSize=8;curved=1;dashed=1;exitX=1;exitY=0.5;exitDx=0;exitDy=0;entryX=0;entryY=0.5;entryDx=0;entryDy=0;" parent="1" source="7ZYM0FB4CEL7lgZt3tm9-47" target="7ZYM0FB4CEL7lgZt3tm9-43" edge="1">
          <mxGeometry relative="1" as="geometry">
            <mxPoint x="1688" y="1170" as="sourcePoint" />
            <mxPoint x="1748" y="1100" as="targetPoint" />
          </mxGeometry>
        </mxCell>
        <mxCell id="7ZYM0FB4CEL7lgZt3tm9-49" value="Include" style="edgeLabel;resizable=0;html=1;;align=center;verticalAlign=middle;" parent="7ZYM0FB4CEL7lgZt3tm9-48" connectable="0" vertex="1">
          <mxGeometry relative="1" as="geometry" />
        </mxCell>
        <mxCell id="7ZYM0FB4CEL7lgZt3tm9-50" value="" style="endArrow=classic;html=1;rounded=0;fontSize=12;startSize=8;endSize=8;curved=1;dashed=1;exitX=1;exitY=0.5;exitDx=0;exitDy=0;entryX=0;entryY=0.5;entryDx=0;entryDy=0;" parent="1" source="7ZYM0FB4CEL7lgZt3tm9-47" target="7ZYM0FB4CEL7lgZt3tm9-42" edge="1">
          <mxGeometry relative="1" as="geometry">
            <mxPoint x="1818" y="1010" as="sourcePoint" />
            <mxPoint x="1878" y="940" as="targetPoint" />
          </mxGeometry>
        </mxCell>
        <mxCell id="7ZYM0FB4CEL7lgZt3tm9-51" value="Include" style="edgeLabel;resizable=0;html=1;;align=center;verticalAlign=middle;" parent="7ZYM0FB4CEL7lgZt3tm9-50" connectable="0" vertex="1">
          <mxGeometry relative="1" as="geometry" />
        </mxCell>
        <mxCell id="7ZYM0FB4CEL7lgZt3tm9-52" value="" style="endArrow=classic;html=1;rounded=0;fontSize=12;startSize=8;endSize=8;curved=1;dashed=1;exitX=1;exitY=0.5;exitDx=0;exitDy=0;entryX=0;entryY=0.5;entryDx=0;entryDy=0;" parent="1" source="7ZYM0FB4CEL7lgZt3tm9-47" target="7ZYM0FB4CEL7lgZt3tm9-44" edge="1">
          <mxGeometry relative="1" as="geometry">
            <mxPoint x="1848" y="1080" as="sourcePoint" />
            <mxPoint x="1908" y="1010" as="targetPoint" />
          </mxGeometry>
        </mxCell>
        <mxCell id="7ZYM0FB4CEL7lgZt3tm9-53" value="Include" style="edgeLabel;resizable=0;html=1;;align=center;verticalAlign=middle;" parent="7ZYM0FB4CEL7lgZt3tm9-52" connectable="0" vertex="1">
          <mxGeometry relative="1" as="geometry" />
        </mxCell>
        <mxCell id="7ZYM0FB4CEL7lgZt3tm9-54" value="cập nhật thông tin người dùng" style="ellipse;whiteSpace=wrap;html=1;" parent="1" vertex="1">
          <mxGeometry x="308" y="680" width="140" height="50" as="geometry" />
        </mxCell>
        <mxCell id="7ZYM0FB4CEL7lgZt3tm9-55" value="xóa người dùng" style="ellipse;whiteSpace=wrap;html=1;" parent="1" vertex="1">
          <mxGeometry x="320" y="465" width="140" height="50" as="geometry" />
        </mxCell>
        <mxCell id="7ZYM0FB4CEL7lgZt3tm9-56" value="xem các báo cáo&lt;div&gt;&amp;nbsp;thống kê&lt;/div&gt;" style="ellipse;whiteSpace=wrap;html=1;" parent="1" vertex="1">
          <mxGeometry x="628" y="330" width="140" height="50" as="geometry" />
        </mxCell>
        <mxCell id="7ZYM0FB4CEL7lgZt3tm9-57" value="" style="endArrow=classic;html=1;rounded=0;fontSize=12;startSize=8;endSize=8;curved=1;dashed=1;exitX=0;exitY=0.5;exitDx=0;exitDy=0;entryX=0.5;entryY=1;entryDx=0;entryDy=0;" parent="1" source="7ZYM0FB4CEL7lgZt3tm9-46" target="7ZYM0FB4CEL7lgZt3tm9-55" edge="1">
          <mxGeometry relative="1" as="geometry">
            <mxPoint x="1678" y="1170" as="sourcePoint" />
            <mxPoint x="1738" y="1100" as="targetPoint" />
          </mxGeometry>
        </mxCell>
        <mxCell id="7ZYM0FB4CEL7lgZt3tm9-58" value="Extend" style="edgeLabel;resizable=0;html=1;;align=center;verticalAlign=middle;" parent="7ZYM0FB4CEL7lgZt3tm9-57" connectable="0" vertex="1">
          <mxGeometry relative="1" as="geometry" />
        </mxCell>
        <mxCell id="7ZYM0FB4CEL7lgZt3tm9-61" value="" style="endArrow=none;html=1;rounded=0;fontSize=12;startSize=8;endSize=8;curved=1;dashed=1;entryX=0.357;entryY=0.03;entryDx=0;entryDy=0;entryPerimeter=0;endFill=0;exitX=0.5;exitY=1;exitDx=0;exitDy=0;startArrow=classic;startFill=1;" parent="1" source="7ZYM0FB4CEL7lgZt3tm9-39" target="7ZYM0FB4CEL7lgZt3tm9-46" edge="1">
          <mxGeometry relative="1" as="geometry">
            <mxPoint x="588" y="376" as="sourcePoint" />
            <mxPoint x="744" y="650" as="targetPoint" />
          </mxGeometry>
        </mxCell>
        <mxCell id="7ZYM0FB4CEL7lgZt3tm9-62" value="Extend" style="edgeLabel;resizable=0;html=1;;align=center;verticalAlign=middle;" parent="7ZYM0FB4CEL7lgZt3tm9-61" connectable="0" vertex="1">
          <mxGeometry relative="1" as="geometry" />
        </mxCell>
        <mxCell id="7ZYM0FB4CEL7lgZt3tm9-63" value="" style="endArrow=classic;html=1;rounded=0;exitX=1;exitY=0.5;exitDx=0;exitDy=0;dashed=1;entryX=0;entryY=0.5;entryDx=0;entryDy=0;" parent="1" source="7ZYM0FB4CEL7lgZt3tm9-47" target="7ZYM0FB4CEL7lgZt3tm9-64" edge="1">
          <mxGeometry width="50" height="50" relative="1" as="geometry">
            <mxPoint x="803" y="703" as="sourcePoint" />
            <mxPoint x="1344" y="421" as="targetPoint" />
          </mxGeometry>
        </mxCell>
        <mxCell id="7ZYM0FB4CEL7lgZt3tm9-64" value="Duyệt nhạc" style="ellipse;whiteSpace=wrap;html=1;" parent="1" vertex="1">
          <mxGeometry x="1301" y="420" width="140" height="50" as="geometry" />
        </mxCell>
      </root>
    </mxGraphModel>
  </diagram>
</mxfile>
